<svg xmlns="http://www.w3.org/2000/svg" width="48.202" height="30.5" viewBox="0 0 48.202 30.5">
  <g id="Group_142" data-name="Group 142" transform="translate(-419.274 -457.016)">
    <g id="Group_132" data-name="Group 132" transform="translate(419.274 457.016)">
      <g id="Group_131" data-name="Group 131">
        <path id="Path_226" data-name="Path 226" d="M460.45,463.968h-9.979l-.006-.006v-6.009h-2.5v3.56h0l-4.591-4.5-7.1,6.952H426.3l-7.026,7.161,14.437,0,9.664-9.664,9.664,9.664,14.437,0Z" transform="translate(-419.274 -457.016)" fill="#418bca"/>
      </g>
    </g>
    <rect id="Rectangle_1643" data-name="Rectangle 1643" width="12.657" height="3.827" transform="translate(421.121 472.792)" fill="#418bca"/>
    <rect id="Rectangle_1644" data-name="Rectangle 1644" width="3.827" height="3.827" transform="translate(435.536 472.773)" fill="#418bca"/>
    <rect id="Rectangle_1645" data-name="Rectangle 1645" width="3.827" height="3.827" transform="translate(447.522 472.801)" fill="#418bca"/>
    <rect id="Rectangle_1646" data-name="Rectangle 1646" width="12.657" height="3.827" transform="translate(421.121 478.241)" fill="#418bca"/>
    <rect id="Rectangle_1647" data-name="Rectangle 1647" width="12.675" height="3.827" transform="translate(465.764 476.628) rotate(-180)" fill="#418bca"/>
    <rect id="Rectangle_1648" data-name="Rectangle 1648" width="12.657" height="3.827" transform="translate(465.764 482.077) rotate(-180)" fill="#418bca"/>
    <rect id="Rectangle_1649" data-name="Rectangle 1649" width="4.642" height="9.285" transform="translate(445.763 482.053) rotate(-180)" fill="#418bca"/>
    <rect id="Rectangle_1650" data-name="Rectangle 1650" width="46.276" height="3.827" transform="translate(420.237 483.689)" fill="#418bca"/>
  </g>
</svg>
