<svg xmlns="http://www.w3.org/2000/svg" width="38" height="30.171" viewBox="0 0 38 30.171">
  <g id="Group_145" data-name="Group 145" transform="translate(-667.95 -1060.422)">
    <g id="Group_144" data-name="Group 144" transform="translate(667.95 1060.422)">
      <g id="Group_143" data-name="Group 143" transform="translate(0)">
        <path id="Path_227" data-name="Path 227" d="M700.411,1065.9h-7.867l0,0v-4.737h-1.97v2.806h0l-3.619-3.546-5.594,5.481h-7.867l-5.539,5.645,11.381,0,7.619-7.619,7.619,7.619,11.381,0Z" transform="translate(-667.95 -1060.422)" fill="#418bca"/>
      </g>
    </g>
    <rect id="Rectangle_1661" data-name="Rectangle 1661" width="3.017" height="3.017" transform="translate(677.396 1074.316)" fill="#418bca"/>
    <rect id="Rectangle_1662" data-name="Rectangle 1662" width="3.017" height="3.017" transform="translate(685.442 1074.363)" fill="#418bca"/>
    <rect id="Rectangle_1663" data-name="Rectangle 1663" width="3.017" height="3.017" transform="translate(677.396 1080.654)" fill="#418bca"/>
    <rect id="Rectangle_1664" data-name="Rectangle 1664" width="3.017" height="3.017" transform="translate(671.649 1074.316)" fill="#418bca"/>
    <rect id="Rectangle_1665" data-name="Rectangle 1665" width="3.017" height="3.017" transform="translate(671.649 1080.654)" fill="#418bca"/>
    <rect id="Rectangle_1666" data-name="Rectangle 1666" width="3.017" height="3.017" transform="translate(699.666 1074.316)" fill="#418bca"/>
    <rect id="Rectangle_1667" data-name="Rectangle 1667" width="3.017" height="3.017" transform="translate(699.666 1080.654)" fill="#418bca"/>
    <rect id="Rectangle_1668" data-name="Rectangle 1668" width="3.017" height="3.017" transform="translate(693.919 1074.316)" fill="#418bca"/>
    <rect id="Rectangle_1669" data-name="Rectangle 1669" width="3.017" height="3.017" transform="translate(693.919 1080.654)" fill="#418bca"/>
    <rect id="Rectangle_1670" data-name="Rectangle 1670" width="3.66" height="7.32" transform="translate(688.833 1087.512) rotate(-180)" fill="#418bca"/>
    <rect id="Rectangle_1671" data-name="Rectangle 1671" width="36.481" height="3.017" transform="translate(668.709 1087.577)" fill="#418bca"/>
  </g>
</svg>
