<svg xmlns="http://www.w3.org/2000/svg" width="43.821" height="32.797" viewBox="0 0 43.821 32.797">
  <g id="Group_152" data-name="Group 152" transform="translate(-1143.66 -1037.113)">
    <g id="Group_151" data-name="Group 151" transform="translate(1143.66 1037.113)">
      <g id="Group_150" data-name="Group 150" transform="translate(0 0)">
        <path id="Path_231" data-name="Path 231" d="M1159.365,1042.259h0l0,0v-4.447h-1.85v2.635h0l-3.4-3.329-5.252,5.146h0l-5.2,5.3,3.3,0,7.153-7.153,7.153,7.153,3.3,0Z" transform="translate(-1143.66 -1037.113)" fill="#418bca"/>
      </g>
    </g>
    <rect id="Rectangle_1689" data-name="Rectangle 1689" width="2.832" height="2.832" transform="translate(1148.31 1059.13)" fill="#418bca"/>
    <rect id="Rectangle_1690" data-name="Rectangle 1690" width="2.832" height="2.832" transform="translate(1157.182 1059.151)" fill="#418bca"/>
    <rect id="Rectangle_1691" data-name="Rectangle 1691" width="3.436" height="6.872" transform="translate(1155.88 1067.137) rotate(-180)" fill="#418bca"/>
    <rect id="Rectangle_1692" data-name="Rectangle 1692" width="19.364" height="2.832" transform="translate(1144.48 1067.078)" fill="#418bca"/>
    <rect id="Rectangle_1693" data-name="Rectangle 1693" width="2.832" height="2.832" transform="translate(1148.31 1054.159)" fill="#418bca"/>
    <rect id="Rectangle_1694" data-name="Rectangle 1694" width="2.832" height="2.832" transform="translate(1157.182 1054.181)" fill="#418bca"/>
    <rect id="Rectangle_1695" data-name="Rectangle 1695" width="2.832" height="2.832" transform="translate(1148.31 1049.167)" fill="#418bca"/>
    <rect id="Rectangle_1696" data-name="Rectangle 1696" width="2.832" height="2.832" transform="translate(1157.182 1049.189)" fill="#418bca"/>
    <rect id="Rectangle_1697" data-name="Rectangle 1697" width="2.832" height="2.832" transform="translate(1170.604 1058.998)" fill="#418bca"/>
    <rect id="Rectangle_1698" data-name="Rectangle 1698" width="2.832" height="2.832" transform="translate(1181.969 1059.019)" fill="#418bca"/>
    <rect id="Rectangle_1699" data-name="Rectangle 1699" width="3.436" height="6.872" transform="translate(1179.517 1067.137) rotate(-180)" fill="#418bca"/>
    <rect id="Rectangle_1700" data-name="Rectangle 1700" width="19.364" height="2.832" transform="translate(1168.117 1067.078)" fill="#418bca"/>
    <rect id="Rectangle_1701" data-name="Rectangle 1701" width="2.832" height="2.832" transform="translate(1170.604 1054.027)" fill="#418bca"/>
    <rect id="Rectangle_1702" data-name="Rectangle 1702" width="2.832" height="2.832" transform="translate(1181.969 1054.048)" fill="#418bca"/>
    <rect id="Rectangle_1703" data-name="Rectangle 1703" width="2.832" height="2.832" transform="translate(1170.604 1049.035)" fill="#418bca"/>
    <rect id="Rectangle_1704" data-name="Rectangle 1704" width="2.832" height="2.832" transform="translate(1181.969 1049.056)" fill="#418bca"/>
    <rect id="Rectangle_1705" data-name="Rectangle 1705" width="19.364" height="2.107" transform="translate(1168.117 1038.775)" fill="#418bca"/>
    <rect id="Rectangle_1706" data-name="Rectangle 1706" width="2.832" height="2.832" transform="translate(1170.604 1043.532)" fill="#418bca"/>
    <rect id="Rectangle_1707" data-name="Rectangle 1707" width="2.832" height="2.832" transform="translate(1181.969 1043.553)" fill="#418bca"/>
  </g>
</svg>
