<svg xmlns="http://www.w3.org/2000/svg" width="47.009" height="32.164" viewBox="0 0 47.009 32.164">
  <g id="Group_148" data-name="Group 148" transform="translate(-886.271 -1072.681)">
    <path id="Path_228" data-name="Path 228" d="M911.52,1118.17H891.565l-5.294,6.526,25.249,0" transform="translate(0 -34.749)" fill="#418bca"/>
    <rect id="Rectangle_1672" data-name="Rectangle 1672" width="21.248" height="3.487" transform="translate(888.465 1091.427)" fill="#418bca"/>
    <rect id="Rectangle_1673" data-name="Rectangle 1673" width="3.795" height="8.453" transform="translate(918.512 1091.427)" fill="#418bca"/>
    <rect id="Rectangle_1674" data-name="Rectangle 1674" width="21.248" height="3.487" transform="translate(888.465 1096.392)" fill="#418bca"/>
    <rect id="Rectangle_1675" data-name="Rectangle 1675" width="47.009" height="3.487" transform="translate(886.271 1101.358)" fill="#418bca"/>
    <g id="Group_147" data-name="Group 147" transform="translate(907.541 1072.681)">
      <g id="Group_146" data-name="Group 146" transform="translate(0 0)">
        <path id="Path_229" data-name="Path 229" d="M995.7,1079.017h0l-.006-.006v-5.476h-2.278v3.244h0l-4.183-4.1-6.467,6.336h0l-6.4,6.526,4.063,0,8.807-8.807,8.807,8.807,4.062,0Z" transform="translate(-976.363 -1072.681)" fill="#418bca"/>
      </g>
    </g>
    <rect id="Rectangle_1676" data-name="Rectangle 1676" width="3.487" height="3.487" transform="translate(921.988 1084.727)" fill="#418bca"/>
    <rect id="Rectangle_1677" data-name="Rectangle 1677" width="3.487" height="3.487" transform="translate(915.345 1084.727)" fill="#418bca"/>
  </g>
</svg>
